HIERARCHY
ROOT Hips
{
	OFFSET -14.64140 90.27770 -84.91600
	CHANNELS 6 Xposition Yposition Zposition Zrotation Xrotation Yrotation
	JOINT Spine
	{
		OFFSET 0.00000 13.20850 -1.60436
		CHANNELS 3 Zrotation Xrotation Yrotation
		JOINT Spine1
		{
			OFFSET 0.00000 8.61716 0.00000
			CHANNELS 3 Zrotation Xrotation Yrotation
			JOINT Spine2
			{
				OFFSET 0.00000 8.61717 0.00000
				CHANNELS 3 Zrotation Xrotation Yrotation
				JOINT Spine3
				{
					OFFSET 0.00000 8.61717 0.00000
					CHANNELS 3 Zrotation Xrotation Yrotation
					JOINT Neck
					{
						OFFSET 0.00000 11.07920 1.10792
						CHANNELS 3 Zrotation Xrotation Yrotation
						JOINT Neck1
						{
							OFFSET 0.00000 7.08032 0.00000
							CHANNELS 3 Zrotation Xrotation Yrotation
							JOINT Head
							{
								OFFSET 0.00000 7.08031 0.00000
								CHANNELS 3 Zrotation Xrotation Yrotation
								End site
								{
									OFFSET 0.00000 0.00000 0.00000
								}
							}
						}
					}
					JOINT RightShoulder
					{
						OFFSET -0.01000 7.91373 5.19711
						CHANNELS 3 Zrotation Xrotation Yrotation
						JOINT RightArm
						{
							OFFSET -18.41580 0.00000 0.00000
							CHANNELS 3 Zrotation Xrotation Yrotation
							JOINT RightForeArm
							{
								OFFSET -29.11090 0.00000 0.00000
								CHANNELS 3 Zrotation Xrotation Yrotation
								JOINT RightHand
								{
									OFFSET -24.65040 0.00000 0.00000
									CHANNELS 3 Zrotation Xrotation Yrotation
									JOINT RightHandThumb1
									{
										OFFSET -5.35114 -0.85590 3.97906
										CHANNELS 3 Zrotation Xrotation Yrotation
										JOINT RightHandThumb2
										{
											OFFSET -4.52789 0.00000 0.00000
											CHANNELS 3 Zrotation Xrotation Yrotation
											JOINT RightHandThumb3
											{
												OFFSET -2.46976 0.00000 0.00000
												CHANNELS 3 Zrotation Xrotation Yrotation
												End site
												{
													OFFSET 0.00000 0.00000 0.00000
												}
											}
										}
									}
									JOINT RightHandIndex1
									{
										OFFSET -14.26970 0.00000 2.88139
										CHANNELS 3 Zrotation Xrotation Yrotation
										JOINT RightHandIndex2
										{
											OFFSET -5.48836 0.00000 0.00000
											CHANNELS 3 Zrotation Xrotation Yrotation
											JOINT RightHandIndex3
											{
												OFFSET -3.01859 0.00000 0.00000
												CHANNELS 3 Zrotation Xrotation Yrotation
												End site
												{
													OFFSET 0.00000 0.00000 0.00000
												}
											}
										}
									}
									JOINT RightHandMiddle1
									{
										OFFSET -14.26970 0.00000 -0.09147
										CHANNELS 3 Zrotation Xrotation Yrotation
										JOINT RightHandMiddle2
										{
											OFFSET -6.17441 0.00000 0.00000
											CHANNELS 3 Zrotation Xrotation Yrotation
											JOINT RightHandMiddle3
											{
												OFFSET -3.56743 0.00000 0.00000
												CHANNELS 3 Zrotation Xrotation Yrotation
												End site
												{
													OFFSET 0.00000 0.00000 0.00000
												}
											}
										}
									}
									JOINT RightHandRing1
									{
										OFFSET -12.69180 0.00000 -3.06433
										CHANNELS 3 Zrotation Xrotation Yrotation
										JOINT RightHandRing2
										{
											OFFSET -5.62556 0.00000 0.00000
											CHANNELS 3 Zrotation Xrotation Yrotation
											JOINT RightHandRing3
											{
												OFFSET -3.56744 0.00000 0.00000
												CHANNELS 3 Zrotation Xrotation Yrotation
												End site
												{
													OFFSET 0.00000 0.00000 0.00000
												}
											}
										}
									}
									JOINT RightHandPinky1
									{
										OFFSET -11.11390 0.00000 -6.03719
										CHANNELS 3 Zrotation Xrotation Yrotation
										JOINT RightHandPinky2
										{
											OFFSET -4.52789 0.00000 0.00000
											CHANNELS 3 Zrotation Xrotation Yrotation
											JOINT RightHandPinky3
											{
												OFFSET -2.46976 0.00000 0.00000
												CHANNELS 3 Zrotation Xrotation Yrotation
												End site
												{
													OFFSET 0.00000 0.00000 0.00000
												}
											}
										}
									}
								}
							}
						}
					}
					JOINT LeftShoulder
					{
						OFFSET 0.01000 7.91373 5.19711
						CHANNELS 3 Zrotation Xrotation Yrotation
						JOINT LeftArm
						{
							OFFSET 18.41580 0.00000 0.00000
							CHANNELS 3 Zrotation Xrotation Yrotation
							JOINT LeftForeArm
							{
								OFFSET 29.11090 0.00000 0.00000
								CHANNELS 3 Zrotation Xrotation Yrotation
								JOINT LeftHand
								{
									OFFSET 24.65040 0.00000 0.00000
									CHANNELS 3 Zrotation Xrotation Yrotation
									JOINT LeftHandThumb1
									{
										OFFSET 5.35114 -0.85590 3.97906
										CHANNELS 3 Zrotation Xrotation Yrotation
										JOINT LeftHandThumb2
										{
											OFFSET 4.52789 0.00000 0.00000
											CHANNELS 3 Zrotation Xrotation Yrotation
											JOINT LeftHandThumb3
											{
												OFFSET 2.46977 0.00000 0.00000
												CHANNELS 3 Zrotation Xrotation Yrotation
												End site
												{
													OFFSET 0.00000 0.00000 0.00000
												}
											}
										}
									}
									JOINT LeftHandIndex1
									{
										OFFSET 14.26970 0.00000 2.88139
										CHANNELS 3 Zrotation Xrotation Yrotation
										JOINT LeftHandIndex2
										{
											OFFSET 5.48836 0.00000 0.00000
											CHANNELS 3 Zrotation Xrotation Yrotation
											JOINT LeftHandIndex3
											{
												OFFSET 3.01859 0.00000 0.00000
												CHANNELS 3 Zrotation Xrotation Yrotation
												End site
												{
													OFFSET 0.00000 0.00000 0.00000
												}
											}
										}
									}
									JOINT LeftHandMiddle1
									{
										OFFSET 14.26970 0.00000 -0.09147
										CHANNELS 3 Zrotation Xrotation Yrotation
										JOINT LeftHandMiddle2
										{
											OFFSET 6.17440 0.00000 0.00000
											CHANNELS 3 Zrotation Xrotation Yrotation
											JOINT LeftHandMiddle3
											{
												OFFSET 3.56744 0.00000 0.00000
												CHANNELS 3 Zrotation Xrotation Yrotation
												End site
												{
													OFFSET 0.00000 0.00000 0.00000
												}
											}
										}
									}
									JOINT LeftHandRing1
									{
										OFFSET 12.69180 0.00000 -3.06433
										CHANNELS 3 Zrotation Xrotation Yrotation
										JOINT LeftHandRing2
										{
											OFFSET 5.62556 0.00000 0.00000
											CHANNELS 3 Zrotation Xrotation Yrotation
											JOINT LeftHandRing3
											{
												OFFSET 3.56744 0.00000 0.00000
												CHANNELS 3 Zrotation Xrotation Yrotation
												End site
												{
													OFFSET 0.00000 0.00000 0.00000
												}
											}
										}
									}
									JOINT LeftHandPinky1
									{
										OFFSET 11.11390 0.00000 -6.03719
										CHANNELS 3 Zrotation Xrotation Yrotation
										JOINT LeftHandPinky2
										{
											OFFSET 4.52789 0.00000 0.00000
											CHANNELS 3 Zrotation Xrotation Yrotation
											JOINT LeftHandPinky3
											{
												OFFSET 2.46976 0.00000 0.00000
												CHANNELS 3 Zrotation Xrotation Yrotation
												End site
												{
													OFFSET 0.00000 0.00000 0.00000
												}
											}
										}
									}
								}
							}
						}
					}
					JOINT pCube4
					{
						OFFSET 0.00000 10.91090 1.10792
						CHANNELS 3 Zrotation Xrotation Yrotation
						End site
						{
							OFFSET 0.00000 0.00000 0.00000
						}
					}
				}
			}
		}
	}
	JOINT RightUpLeg
	{
		OFFSET -9.98441 0.00000 0.00000
		CHANNELS 3 Zrotation Xrotation Yrotation
		JOINT RightLeg
		{
			OFFSET 0.00000 -42.11790 0.00000
			CHANNELS 3 Zrotation Xrotation Yrotation
			JOINT RightFoot
			{
				OFFSET 0.00000 -45.00020 -0.00001
				CHANNELS 3 Zrotation Xrotation Yrotation
				JOINT RightForeFoot
				{
					OFFSET 0.00000 -3.74820 0.00000
					CHANNELS 3 Zrotation Xrotation Yrotation
					JOINT RightToeBase
					{
						OFFSET 0.00000 0.06325 14.43120
						CHANNELS 3 Zrotation Xrotation Yrotation
						End site
						{
							OFFSET 0.00000 0.00000 0.00000
						}
					}
				}
			}
		}
	}
	JOINT LeftUpLeg
	{
		OFFSET 9.98441 0.00000 0.00000
		CHANNELS 3 Zrotation Xrotation Yrotation
		JOINT LeftLeg
		{
			OFFSET 0.00000 -42.11800 0.00000
			CHANNELS 3 Zrotation Xrotation Yrotation
			JOINT LeftFoot
			{
				OFFSET 0.00000 -45.00070 0.00000
				CHANNELS 3 Zrotation Xrotation Yrotation
				JOINT LeftForeFoot
				{
					OFFSET 0.00000 -3.74824 0.00000
					CHANNELS 3 Zrotation Xrotation Yrotation
					JOINT LeftToeBase
					{
						OFFSET 0.00000 0.06325 14.43110
						CHANNELS 3 Zrotation Xrotation Yrotation
						End site
						{
							OFFSET 0.00000 0.00000 0.00000
						}
					}
				}
			}
		}
	}
}
MOTION
Frames: 4
Frame Time: 0.050000
-0.02769576793506256 -0.012975140269771028 -0.007794561135047332 -0.04969851770506012 -0.010327578252205927 0.04861965029641552 -2.6425834763672262 0.14490044833154125 -0.8572159882420732 -0.8374009709570551 3.5882925377990906 0.39237572340688076 -1.4416690592787809 -2.397674332957529 -0.9947792888122119 0.14377129501702826 -0.17590526529688066 -0.8346298750323679 1.1935677267589466 14.816118316289243 -2.9661638091921194 0.37323241818285036 0.6974403748854419 -8.260970381544002 1.3349791377022542 -14.216830588439539 -0.7168117371305766 -8.631443562345249 2.88164669399779 -15.377417134857783 72.56442927154242 -17.74674859108736 21.58239076316299 38.520171858963515 9.114869804772624 97.52628387347625 16.963896707980133 -0.5104420852045265 -2.5785705673389776 4.544718981277831 -0.09310549802121632 -1.627822827085575 -0.010742373263559396 0.007083784572309864 -56.257623846276985 0.03656599577189909 -0.027185970538050205 -56.211494980995965 -38.802263086937515 0.00207398194055888 -0.02213674618060018 0.03254831136511967 0.03499948929028587 0.04394749759244536 0.04907877622507509 0.0067170658284076675 0.0465740238880577 -36.683442108038264 -0.014341927776528835 -0.03646327123075671 0.033228254224158864 -0.003959136272975636 -0.022277542332524967 0.02704343615653994 0.042534230283093215 -0.0037357442808716884 -19.763407611558456 0.04676371383859379 -0.02871507240117106 0.0007789655850861983 0.015031768295646638 -0.042942345041984756 0.04196769066082099 0.00145781958722252 -0.019190831080320405 24.006908572755535 0.023125986832651456 -0.04732591093465811 28.844740122827538 0.016847492010829936 -0.036726658717244516 28.856814926393422 0.03753238607668633 0.009729039529782662 7.324454778174242 1.8740066003428943 12.765797441579787 -71.86611128121977 9.2171960028555 -13.447205054899895 -50.54152361975041 13.305698817751994 -105.16139994622597 -5.9863407112562195 0.9200718338932453 -3.9051967138929955 -0.49295748221398933 0.0884541164680754 -8.134466296901218 0.009125915560573588 -0.04312633582074367 44.5823821673278 -0.023743503076615713 0.03459672433779809 44.54591936553109 12.429279881141833 0.020719660232409395 0.030476503092900276 -0.041888105110631464 0.02279657244756204 -0.019318528397384644 0.023322154430894564 0.027313880991413884 0.019441468827491336 11.093838275903444 -0.03897391497955206 -0.030952282506170808 -0.00040825018388099027 -0.007000161684778598 0.013894608625412648 -0.043751236397187504 -0.04114723776179364 0.025695766256651598 4.785695990637497 0.01175419099796625 0.034422146124807 -0.005509520401247665 0.01821178127870268 -0.029087584042517937 0.04056781663020889 0.009418266237254959 -0.03929589265793993 -5.599661112334785 -0.020397916682396433 0.044133009325767414 -6.741318365940984 0.03769560679216688 -0.01416156918817002 -6.746638759707449 -0.0016978171600305005 -0.002402990261193821 0.02108639805365667 0.009490701883797751 0.02386228859213128 8.090925249826343 3.4848920942173396 -19.256636317839337 -0.002523749915069885 10.405292172027853 0.048524556341702885 -5.590381306321653 -15.709619142657617 3.234341126930534 -0.027753379161167355 0.028451192559194007 -0.0002893089609647043 0.030267819362760108 4.724757588904898 0.029815877125338185 12.418695823570896 -8.275496651956653 6.855183382171243 -0.010595917800807703 46.38167881957851 -0.040078913882563336 -4.300106112973682 -14.790724406375169 -3.7969943596943323 0.045936773901674735 -0.04501382347009207 -0.027700903080065745 -0.03116234485567554 -10.77154939362124 -0.0028722990872090534 
0.032259139891227605 0.0474776349378974 -0.011561836129792278 -0.02148694982278422 0.006924848135526753 0.044155749039314914 -2.6975811643255554 -0.0025481139696172106 -0.8359647395254208 -0.8669325184068797 3.5262006555168295 0.32587324192141603 -1.46412906451927 -2.520532720128768 -0.8694830910464051 0.13470438703097914 -0.13510098514846106 -0.7758188872070984 1.1992054848897753 15.207978783587043 -2.9291880742398915 0.3442407648364235 0.7643832947106903 -8.26984065311533 1.4117491844053487 -14.093907590801733 -0.6608410655653936 -9.40747347775735 2.9839993743476594 -15.410501547610984 71.32930584601563 -21.024737385098657 25.773537924971556 36.85274668618558 7.836155665818637 98.5154877985002 16.213876926570798 -0.5418474067543059 -1.5917419600904035 4.507776469243201 -0.08965274655327832 -1.5874805651034751 0.034258737857973634 0.022860591550094716 -56.204792008201665 -0.040725704727999246 0.020887756303470555 -56.22196118083741 -38.758852906108956 0.012450737761438381 0.000577028218144046 -0.028262662038677392 -0.03195794950696866 0.003173417724963152 -0.03743350866454576 0.026658789701327023 0.013697200822890526 -36.67724539092626 -0.04832531778597814 0.046623594788894954 -0.007982576411133141 0.049882113149248626 0.03435205653330769 0.04222780879264323 -0.021172134157019903 -0.011999708137927768 -19.80184296468286 0.03232324749862555 0.011977464635488943 -0.01990970243459792 -0.034965694283049555 0.016150200801318407 -0.017664484513792218 -0.026026207891883667 0.003547667923264059 24.078233852858872 -0.01502735136657364 -0.040117762777105825 28.898191639033637 0.03866771279512322 -0.021443614619087715 28.866598908738315 -0.008095872764187441 0.04164937409832106 7.513299335592624 1.8923460334290656 12.789288734574786 -70.8772943585332 8.88530950889466 -14.45299628197639 -44.72970602275461 11.247297529322143 -103.82641416805379 -3.6347643597182606 1.7856114624520003 -4.837828142479357 -0.461337092180366 0.07640784854587745 -8.137621039856953 -0.031028153831386025 -0.011197284207506803 44.54089787553148 0.014175722804034577 0.026335605116573207 44.52752146394192 12.427372103701416 -0.018023488043742358 0.0006586554451578207 -0.018651338822383404 -0.007465159418465995 -0.012878978754480932 -0.0012943122371625697 -0.04815893134469964 -0.016492566360698527 11.105989958772497 -0.028709774400154386 -0.04590552521251077 -0.0018073598814843184 0.010967565393390066 -0.01829560768464498 0.008858182702798553 -0.011898447194798902 -0.010062521862748808 4.734605029272039 0.049099511800480396 -0.01783036062168772 -0.03526036905670398 0.008392612022605946 0.011117463769977668 0.017589533675547223 0.039630869881421116 0.04975608937910013 -5.566338961486878 -0.04151824492968739 0.0122640641338901 -6.752489419311206 -0.009897931088264643 0.008602627856300744 -6.695565541382 -0.005962469394891565 -0.015217674231156735 -0.02828096805166377 0.02503415038651073 -0.012685847745836847 8.090687484710207 3.462562400609504 -19.250250916400688 0.01331887415036896 10.38436514408305 -0.008952486933064326 -5.618781433252006 -15.673382239498814 3.1616963770191493 0.008282649482292355 -0.03242898983491202 0.043674911303115675 -0.047669888737521045 4.6547824252249494 -0.019408992433454692 12.459879772478763 -8.255252648633153 6.8592903347763095 -0.0245005855712305 46.39192207410521 0.005592691005056243 -4.341183405329337 -14.759996322021898 -3.871482710142789 -0.01599079127019247 0.04534919502501737 0.0487203865025991 0.006377506323424562 -10.718110198267102 0.00528544656727607 
0.017212542462022026 -0.04340289811984494 0.004927817655856836 0.02880997310175277 0.03433470835381954 0.04241325055537011 -2.905248068843853 -0.06925561088258222 -0.8210651000525089 -0.91601628487359 3.593728961037189 0.3904137368533242 -1.4660848221303808 -2.5987460420047186 -0.7416870089298802 0.07534544665400562 -0.20970235623103886 -0.8044112716568221 1.3419333073108448 15.343821822233625 -2.9235953568143382 0.43047304238582784 0.8849716242628869 -8.36585509645625 1.491440047275792 -14.052659289396171 -0.6300170957110384 -9.991761630199768 3.1908327553880476 -15.278468030013851 69.57713874950448 -23.91702517441134 29.8603250782674 35.27593037771927 6.585431725883129 99.17175417288087 15.63324023518267 -0.535324016918045 -0.9805194922436578 4.575626678611359 -0.16666877597220317 -1.579210955997572 0.005616842948840847 -0.0451275715525544 -56.25932546703038 -0.041685627252143524 0.009978003814398046 -56.258950557024974 -38.72360178208584 0.027326816826001257 -0.030645075374852403 0.007259764918977416 0.019313984523469007 -0.023036970337557534 0.013142913927816439 -0.01586312167654829 -0.02968251481063118 -36.66173248599919 -0.028642961071421103 -0.04264002868058421 -0.003303591922548463 0.04290818758291094 0.013359466144921185 -0.03476138385944073 0.04637822347917797 0.004026767445115302 -19.746306597133774 -0.02067037179703042 0.025375128437957955 -0.00010357509654835741 0.025443407467675584 -0.010260820801433425 0.040723635740049065 0.010409254599609537 -0.0034800783482141985 24.092262223243143 -0.047937670445279267 -0.04188302346344688 28.891780519231308 -0.035006812764227055 -0.034858456722267804 28.896964001079972 -0.008865526066485245 0.004731679045109697 7.632536895654944 1.8804371348234306 12.721872736663602 -69.72587222721037 8.921835567697388 -15.519141162653238 -39.17560149453811 8.81199013878296 -102.47672515853894 -1.481448408442758 2.431537760910835 -5.778438457934365 -0.45948953592172104 0.019062978611238082 -8.173426863739 0.01537840081650803 9.999783697623945e-05 44.54999050569076 0.017415010154296542 0.038806406997067854 44.530645762968575 12.435651294117866 0.0487617272130666 -0.04892995057922309 -0.04268149419317935 -0.00985373847136071 0.023903395375445623 0.018879990454459396 0.0030084562562202387 0.01371897539399744 11.106715763497194 0.00024461773942422094 0.038149604415936976 0.04816639061932879 0.027880944703156975 0.04527808732488926 -0.045693500962670906 -0.02324243302165881 -0.04568763978173407 4.820214655183402 0.036825845398080835 -0.02164846092562728 0.032775056242747534 0.014508988257443867 0.030739324130100085 -0.013070260224277767 0.03856963420144304 -0.04519930351019026 -5.623460499163401 0.038018971285505736 0.0023687180610650485 -6.730480764134748 -0.019167596344173442 0.006858321985425033 -6.767732897874215 0.014815004538910246 -0.03234216922855969 0.006782495932048484 0.031255550675470055 0.027170825128002615 8.056618463129404 3.48608601581568 -19.17184667808933 -0.04581275007537444 10.385849546495658 0.016122753194232647 -5.646245848176683 -15.652796742685789 3.1602589146655884 -0.04961440058672706 -0.011096625618835716 0.015556993365305081 0.02650906204620296 4.702339349332621 -0.027340003151933082 12.459076899019585 -8.207815156603582 6.846655225144132 0.01091823940873574 46.395828876181206 -0.045332564768775195 -4.287189011337697 -14.708088189649398 -3.8204304022003135 -0.03462755298802909 0.010787131617233933 0.01663956940944642 -0.014959319102138848 -10.715727217613816 0.0024544784230826813 
-0.024193541975823712 -0.0069342778629370916 -0.011942531862662094 0.011907421962501698 -0.011634659953015056 -0.0016305059117601587 -2.9976176326010044 -0.2376825416700039 -0.7462384034564047 -0.9467754485610231 3.602158065021731 0.4301501939296671 -1.5778788356274167 -2.6299026600797406 -0.59895228018082 -0.00786602624785096 -0.2133193017888591 -0.7444391128144494 1.3399586735684783 15.618160926131383 -2.95907967101025 0.3981503004852396 0.9095139760140484 -8.353462370692727 1.4269891979485005 -13.926065840055163 -0.6891609207100122 -10.456093297342656 3.272926375421045 -15.110820154190856 67.4048955450156 -25.031866768861196 34.1009022280188 32.044862269334 5.026812975818984 99.9621938090136 14.962323765911414 -0.5671984355928723 -0.40999013592318956 4.5137397067040235 -0.16152845043847436 -1.563517278460545 -0.007969568715244261 -0.006743489709208756 -56.227111485486105 0.023029979500112527 -0.037855743536480274 -56.2019996929057 -38.77326622791516 0.028783081360659216 0.03683672527271141 -0.03847240374844825 0.04509003011508995 -0.012863631676197463 -0.011333382519745624 -0.02225086521229141 -0.025283689866654097 -36.70618965748427 -0.0420224813224506 0.015165858956580609 -0.039180061385468014 -0.03664013173492152 0.01700187046553603 0.015606999287786236 -0.016761607619652504 -0.04870961203965097 -19.708317923688348 -0.03548271363350887 0.04751430262414064 0.019962959419293012 0.03225370485351931 0.012690319373167953 -0.007463920995503936 -0.042363459460241504 0.03448391861413024 24.012043289556434 -0.029583375024264228 -0.04250062288878128 28.85201221837563 -0.012003335135572585 -0.037010052330485536 28.85345567991726 -0.01795957300634554 -0.009121673965455424 7.866041820957108 1.906627613919871 12.706974450523322 -68.32862917121898 9.240081165257623 -16.969643836762494 -32.56768162431492 5.726377910029575 -101.45845027462038 0.6501313009333891 2.8516556520513894 -6.314371763145182 -0.4504288127618026 0.08291322649650446 -8.158463076291426 -0.02229575794992613 0.04163943888532573 44.54687904327967 -0.03763189871558454 0.012396443617155944 44.58425969178124 12.458194715148641 0.028501412175577345 -0.008936982406840351 0.007480053088055041 -0.04703146397164724 -0.027960394494931443 -0.03838300862363521 -0.025398943904186892 -0.021461700299481183 11.113196962714369 -0.026539952680204565 0.02524710764395553 -0.025206746463144032 0.01272442463530755 -0.04214912975464132 -0.015433097537275198 -0.020998307383628626 0.006254745626958685 4.762723083970739 -0.030843600647467485 -0.013405489684826712 -0.023475156461499513 -0.01773663019311928 -0.0018524091670307295 -0.006521126894485801 -0.00632188875797704 0.014874148578730925 -5.591683174189017 0.04491459194944408 0.04247638292580477 -6.732988761724612 0.025649053321209696 0.0011306588102331515 -6.769268317272576 -0.026280740283144883 0.026900944081112602 -0.009628745741227155 0.01591942987317487 -0.04568559959904571 8.013941847468447 3.4722783770045744 -19.21053026244718 -0.0010903929874815424 10.368126312776784 0.0587217211687778 -5.59273522509718 -15.627732379005646 3.1494200602880493 -0.027543064592352038 0.043712901968650214 -0.03060410016181235 0.03615878553798196 4.697599942249699 0.0471302583879445 12.42845438979281 -8.268405918956766 6.857009163211696 -0.02433085598540296 46.376083333595005 0.011778570540784083 -4.339839698790187 -14.772510652508362 -3.8402763936749134 0.00517665673413074 -0.01155644660216575 0.03236701414435721 0.0029905163799750657 -10.724653218047921 0.016732190703277295 
